<svg version="1.1" id="Layer_1" xmlns="http://www.w3.org/2000/svg" xmlns:xlink="http://www.w3.org/1999/xlink" x="0px" y="0px"
	 width="100%" viewBox="0 0 237 199" enable-background="new 0 0 237 199" xml:space="preserve">
<path fill="#000000" opacity="1.000000" stroke="none" 
	d="
M0.999999,199.000000 
	C1.000000,133.033981 1.000000,67.067970 1.000000,1.050977 
	C79.925308,1.050977 158.850647,1.050977 237.888000,1.050977 
	C237.888000,67.224342 237.888000,133.448944 237.888000,200.000000 
	C166.312775,200.000000 94.625038,200.000000 22.294476,199.608688 
	C22.001137,198.882324 22.301064,198.339188 22.707335,198.242386 
	C35.995293,195.076202 49.546780,192.757919 62.541569,188.668900 
	C98.289116,177.420319 131.795288,161.756332 160.612900,137.064240 
	C179.655518,120.747757 194.797470,101.840431 201.152023,77.277428 
	C205.679153,59.778255 204.437500,43.068993 188.937317,30.366215 
	C183.413986,25.839699 181.669174,25.914385 177.607468,31.708229 
	C177.251724,32.215683 176.674622,32.567944 175.947388,33.218609 
	C172.627487,29.859079 169.311646,26.477547 164.051392,28.469101 
	C162.942444,21.479698 160.585388,19.615049 154.137024,20.001873 
	C152.828979,20.080341 150.654510,19.988194 150.295853,19.268677 
	C148.202316,15.068813 144.836121,15.901660 141.450211,16.278280 
	C140.736572,22.209751 140.791321,21.969624 145.947052,23.145180 
	C147.371399,23.469946 149.146622,25.551121 149.413208,27.063890 
	C150.356476,32.416714 154.667130,34.980339 160.274597,33.031044 
	C161.259521,35.186687 161.509888,37.424053 162.651489,39.026516 
	C164.827896,42.081585 167.512787,44.774414 169.688995,47.816322 
	C166.585449,50.957272 163.094543,53.498020 161.093262,56.911983 
	C152.874023,70.933060 145.131882,85.233215 137.165833,99.403503 
	C132.935013,106.929420 128.605118,114.399635 124.293571,121.941139 
	C123.675049,121.510422 123.319473,121.392899 123.187988,121.152710 
	C113.347511,103.175514 103.659584,85.112999 93.635803,67.238823 
	C89.482819,59.833309 86.304153,51.653126 76.582199,48.787434 
	C69.980942,46.841618 56.718655,46.651539 53.444706,55.227272 
	C50.367901,63.286610 48.143276,71.705139 46.009521,80.084251 
	C39.832409,104.341377 33.855747,128.649841 27.875565,152.956650 
	C26.081285,160.249619 24.533678,167.603287 22.549213,175.159241 
	C21.479851,178.010742 23.158827,178.010742 24.974365,178.006790 
	C36.268745,177.982269 47.563282,178.005768 58.857384,177.943512 
	C59.528481,177.939819 60.196236,177.331192 61.047501,176.660095 
	C66.326935,155.673645 71.424423,135.031158 76.632797,113.939590 
	C83.502235,126.433281 90.210480,138.451416 96.722183,150.575119 
	C99.021103,154.855316 100.839813,159.393448 102.582016,164.003571 
	C93.646004,168.456985 85.284409,173.466690 76.304497,176.821121 
	C60.149063,182.855957 43.715858,188.203613 27.213179,193.229111 
	C18.680910,195.827423 9.750517,197.118378 0.999999,199.000000 
M224.931244,175.241531 
	C221.288376,160.455048 217.704834,145.653473 213.950378,130.895370 
	C213.237198,128.091919 211.847153,125.460670 210.421005,121.873657 
	C209.182709,123.816910 208.462936,124.547134 208.202454,125.415184 
	C204.379608,138.154068 196.511139,148.690323 188.916138,159.181046 
	C184.832733,164.821304 184.058090,169.899094 186.078049,176.539642 
	C186.377930,176.656342 186.677811,176.773026 187.912323,176.997986 
	C199.948730,176.947968 211.985138,176.897949 224.512207,176.873322 
	C224.871063,176.690918 224.977432,176.412155 224.931244,175.241531 
M185.423233,18.911137 
	C184.444138,17.946548 183.416382,16.120653 182.494720,16.172728 
	C179.234299,16.356937 177.472641,14.980885 175.719360,12.370406 
	C174.101562,9.961661 168.802292,10.393668 166.876480,12.660262 
	C164.702469,15.218962 164.259186,18.071751 166.415787,20.757204 
	C168.325699,23.135509 170.605438,24.909094 174.074829,23.147577 
	C175.251648,22.550068 177.140717,22.218344 178.212204,22.752441 
	C182.284058,24.782082 183.909302,24.242105 185.423233,18.911137 
M139.887344,2.547459 
	C136.523361,3.752298 135.112961,6.396433 136.218033,9.515788 
	C136.749817,11.016959 139.524475,13.089486 140.665771,12.760487 
	C144.563080,11.637009 148.191467,12.224981 151.939682,12.906116 
	C152.311417,12.973669 152.779922,12.508779 153.427979,12.175612 
	C153.332947,10.586576 153.237350,8.987860 153.117447,6.982715 
	C150.910217,7.102129 149.019196,7.204436 148.248184,7.246149 
	C145.194641,5.228385 142.862137,3.687079 139.887344,2.547459 
M132.500702,12.990256 
	C134.474274,10.347114 135.650543,7.597002 131.464966,6.178831 
	C130.076080,5.708245 127.689369,6.275489 126.653549,7.285657 
	C125.853813,8.065587 125.803185,11.007070 126.572235,11.690641 
	C127.875496,12.849051 130.088379,12.984098 132.500702,12.990256 
M118.273575,4.825837 
	C115.587166,3.693777 112.753571,2.647444 112.113327,6.891381 
	C111.950928,7.967898 113.099457,9.800207 114.137001,10.339062 
	C115.127625,10.853547 117.380348,10.607373 117.959183,9.845429 
	C118.782333,8.761870 118.582153,6.900919 118.273575,4.825837 
M157.436523,16.886732 
	C159.366714,16.991369 161.319687,17.274052 163.205612,17.032736 
	C163.536118,16.990446 164.065903,13.883054 163.682175,13.669867 
	C161.882309,12.669912 159.795456,12.186562 157.071777,11.269913 
	C157.071777,13.608866 157.071777,14.860064 157.436523,16.886732 
z"/>
<path fill="#DB2F29" opacity="1.000000" stroke="none" 
	d="
M0.999999,199.500000 
	C9.750517,197.118378 18.680910,195.827423 27.213179,193.229111 
	C43.715858,188.203613 60.149063,182.855957 76.304497,176.821121 
	C85.284409,173.466690 93.646004,168.456985 102.933716,164.002258 
	C128.900497,148.094223 150.166931,128.091660 166.820480,103.356506 
	C173.872864,92.881760 177.154205,81.059441 176.704971,68.425629 
	C176.439316,60.954533 175.161407,53.602524 169.986572,47.617630 
	C167.512787,44.774414 164.827896,42.081585 162.651489,39.026516 
	C161.509888,37.424053 161.259521,35.186687 160.374695,32.779533 
	C161.454285,31.166035 162.765839,30.009043 164.077393,28.852051 
	C169.311646,26.477547 172.627487,29.859079 175.947388,33.218609 
	C176.674622,32.567944 177.251724,32.215683 177.607468,31.708229 
	C181.669174,25.914385 183.413986,25.839699 188.937317,30.366215 
	C204.437500,43.068993 205.679153,59.778255 201.152023,77.277428 
	C194.797470,101.840431 179.655518,120.747757 160.612900,137.064240 
	C131.795288,161.756332 98.289116,177.420319 62.541569,188.668900 
	C49.546780,192.757919 35.995293,195.076202 22.707335,198.242386 
	C22.301064,198.339188 22.001137,198.882324 21.825817,199.608688 
	C15.000000,200.000000 8.000000,200.000000 0.999999,199.500000 
z"/>
<path fill="#545D7D" opacity="1.000000" stroke="none" 
	d="
M169.688995,47.816326 
	C175.161407,53.602524 176.439316,60.954533 176.704971,68.425629 
	C177.154205,81.059441 173.872864,92.881760 166.820480,103.356506 
	C150.166931,128.091660 128.900497,148.094223 103.229469,163.812500 
	C100.839813,159.393448 99.021103,154.855316 96.722183,150.575119 
	C90.210480,138.451416 83.502235,126.433281 76.632797,113.939590 
	C71.424423,135.031158 66.326935,155.673645 60.587593,176.655411 
	C49.665562,176.992569 39.383125,177.102509 29.107092,176.895050 
	C27.016705,176.852859 24.950441,175.615524 22.873060,174.929138 
	C24.533678,167.603287 26.081285,160.249619 27.875565,152.956650 
	C33.855747,128.649841 39.832409,104.341377 46.009521,80.084251 
	C48.143276,71.705139 50.367901,63.286610 53.444706,55.227272 
	C56.718655,46.651539 69.980942,46.841618 76.582199,48.787434 
	C86.304153,51.653126 89.482819,59.833309 93.635803,67.238823 
	C103.659584,85.112999 113.347511,103.175514 123.187988,121.152710 
	C123.319473,121.392899 123.675049,121.510422 124.293571,121.941139 
	C128.605118,114.399635 132.935013,106.929420 137.165833,99.403503 
	C145.131882,85.233215 152.874023,70.933060 161.093262,56.911983 
	C163.094543,53.498020 166.585449,50.957272 169.688995,47.816326 
z"/>
<path fill="#8E7D76" opacity="1.000000" stroke="none" 
	d="
M186.103165,176.011993 
	C184.058090,169.899094 184.832733,164.821304 188.916138,159.181046 
	C196.511139,148.690323 204.379608,138.154068 208.202454,125.415184 
	C208.462936,124.547134 209.182709,123.816910 210.421005,121.873657 
	C211.847153,125.460670 213.237198,128.091919 213.950378,130.895370 
	C217.704834,145.653473 221.288376,160.455048 224.741180,175.769226 
	C224.367905,176.474152 224.191376,176.657822 224.021545,176.847931 
	C211.985138,176.897949 199.948730,176.947968 187.309570,176.787521 
	C186.518494,176.374908 186.317276,176.186554 186.103165,176.011993 
z"/>
<path fill="#DF2727" opacity="1.000000" stroke="none" 
	d="
M164.051392,28.469101 
	C162.765839,30.009043 161.454285,31.166035 160.042618,32.574539 
	C154.667130,34.980339 150.356476,32.416714 149.413208,27.063890 
	C149.146622,25.551121 147.371399,23.469946 145.947052,23.145180 
	C140.791321,21.969624 140.736572,22.209751 141.450211,16.278280 
	C144.836121,15.901660 148.202316,15.068813 150.295853,19.268677 
	C150.654510,19.988194 152.828979,20.080341 154.137024,20.001873 
	C160.585388,19.615049 162.942444,21.479698 164.051392,28.469101 
z"/>
<path fill="#D23723" opacity="1.000000" stroke="none" 
	d="
M185.641830,19.237301 
	C183.909302,24.242105 182.284058,24.782082 178.212204,22.752441 
	C177.140717,22.218344 175.251648,22.550068 174.074829,23.147577 
	C170.605438,24.909094 168.325699,23.135509 166.415787,20.757204 
	C164.259186,18.071751 164.702469,15.218962 166.876480,12.660262 
	C168.802292,10.393668 174.101562,9.961661 175.719360,12.370406 
	C177.472641,14.980885 179.234299,16.356937 182.494720,16.172728 
	C183.416382,16.120653 184.444138,17.946548 185.641830,19.237301 
z"/>
<path fill="#DE2A28" opacity="1.000000" stroke="none" 
	d="
M140.208481,2.346616 
	C142.862137,3.687079 145.194641,5.228385 148.248184,7.246149 
	C149.019196,7.204436 150.910217,7.102129 153.117447,6.982715 
	C153.237350,8.987860 153.332947,10.586576 153.427979,12.175612 
	C152.779922,12.508779 152.311417,12.973669 151.939682,12.906116 
	C148.191467,12.224981 144.563080,11.637009 140.665771,12.760487 
	C139.524475,13.089486 136.749817,11.016959 136.218033,9.515788 
	C135.112961,6.396433 136.523361,3.752298 140.208481,2.346616 
z"/>
<path fill="#D13520" opacity="1.000000" stroke="none" 
	d="
M132.209808,13.269790 
	C130.088379,12.984098 127.875496,12.849051 126.572235,11.690641 
	C125.803185,11.007070 125.853813,8.065587 126.653549,7.285657 
	C127.689369,6.275489 130.076080,5.708245 131.464966,6.178831 
	C135.650543,7.597002 134.474274,10.347114 132.209808,13.269790 
z"/>
<path fill="#D33B26" opacity="1.000000" stroke="none" 
	d="
M118.546371,5.098969 
	C118.582153,6.900919 118.782333,8.761870 117.959183,9.845429 
	C117.380348,10.607373 115.127625,10.853547 114.137001,10.339062 
	C113.099457,9.800207 111.950928,7.967898 112.113327,6.891381 
	C112.753571,2.647444 115.587166,3.693777 118.546371,5.098969 
z"/>
<path fill="#7F7F80" opacity="1.000000" stroke="none" 
	d="
M22.549212,175.159241 
	C24.950441,175.615524 27.016705,176.852859 29.107092,176.895050 
	C39.383125,177.102509 49.665562,176.992569 60.405640,176.999390 
	C60.196236,177.331192 59.528481,177.939819 58.857384,177.943512 
	C47.563282,178.005768 36.268745,177.982269 24.974365,178.006790 
	C23.158827,178.010742 21.479851,178.010742 22.549212,175.159241 
z"/>
<path fill="#D33B27" opacity="1.000000" stroke="none" 
	d="
M157.254150,16.498997 
	C157.071777,14.860064 157.071777,13.608866 157.071777,11.269913 
	C159.795456,12.186562 161.882309,12.669912 163.682175,13.669867 
	C164.065903,13.883054 163.536118,16.990446 163.205612,17.032736 
	C161.319687,17.274052 159.366714,16.991369 157.254150,16.498997 
z"/>
<path fill="#94857F" opacity="1.000000" stroke="none" 
	d="
M186.090607,176.275818 
	C186.317276,176.186554 186.518494,176.374908 186.842255,176.733398 
	C186.677811,176.773026 186.377930,176.656342 186.090607,176.275818 
z"/>
<path fill="#94857F" opacity="1.000000" stroke="none" 
	d="
M224.266876,176.860626 
	C224.191376,176.657822 224.367905,176.474152 224.691223,176.166992 
	C224.977432,176.412155 224.871063,176.690918 224.266876,176.860626 
z"/>
</svg>